<!-- Generator: Adobe Illustrator 18.1.1, SVG Export Plug-In  -->
<svg version="1.1"
	 xmlns="http://www.w3.org/2000/svg" xmlns:xlink="http://www.w3.org/1999/xlink" xmlns:a="http://ns.adobe.com/AdobeSVGViewerExtensions/3.0/"
	 x="0px" y="0px" width="76px" height="76px" viewBox="0 0 76 76" enable-background="new 0 0 76 76" xml:space="preserve">
<defs>
</defs>
<g>
	<circle fill="#070000" cx="38" cy="38" r="38"/>
	<circle fill="#E5AD8B" cx="38" cy="38" r="37"/>
	<g>
		<g>
			<path fill="#603813" d="M39.5,72.4c-0.3,0-0.7,0-1,0c-13.4,0-20.8-8.5-20.9-8.6l-0.1-0.1l0-0.1c-1-4,2.1-9.5,2.3-9.7l6.2-9.8
				l0.7-2.4l0.5-1.7l0-1.2l1.5-1.6l-2-2.3l0.1-0.2c0.3-1.1-0.4-2-1.1-2.9c-0.5-0.7-1-1.3-1.2-2.1c-1-4.9-0.8-5.5-0.7-5.8
				c0-0.2,0-0.6-0.1-1.1c-0.3-1.9-0.7-5.1,1-6.2c1.2-0.7,2.7-2.3,4.1-3.9c1.1-1.1,2.1-2.2,3-3c2.3-2,9.6-1.6,9.9-1.6l0.1,0l1.5,0.9
				l1.2,1l1.5,1.4l2.4-0.1l0.1-0.2c0.2,0.2,2,1.5,2.1,2.8c0,1.3-0.7,1.9-0.8,2l-0.6-0.7l0.3,0.3l-0.3-0.3c0,0,0.5-0.7,0.5-1.6
				c0-0.6-0.9-0.7-1.6-2.4l-2.4,0.1L44,10.5l-1.1-0.7l-1.3-0.7c-2.1-0.1-7.5,0-9.2,1.4c-0.9,0.8-1.9,1.8-2.9,2.9
				c-1.5,1.6-3,3.2-4.3,4c-1.3,0.8-0.9,3.8-0.7,5.4c0.1,1,0.2,1.3,0,1.5c0,0.2-0.1,1.1,0.8,5.3c0.1,0.6,0.6,1.1,1,1.7
				c0.7,0.9,1.6,2,1.4,3.4l2.5,2.5l-1.4,1.9l0,1.1l-1,1.9l-1.2,2.4l-6.2,9.8c0,0-3,5.3-2.2,9c0.7,0.8,8.2,8.2,20.6,8.2
				c12.1,0,19.2-6.9,20.9-7.9l0-0.5c-1.7-1-7.3-10.2-12.9-13.7l-0.5-0.2l0.1-0.5c-0.5,0.1-1.3,0.2-2.1,0.4l-0.4,1l-0.3,0
				c-0.5,0.1-1.4,0.1-1.8-0.3c-0.1-0.1,0.2-0.3,0.2-0.5v-0.1l0.5-3.9l1.2,0l0.6,0.2l-0.3-0.5l1.2-4.1l0.3,0.1c1,0.1,2.7,0.2,3.2,0.1
				c1-0.4,2.3-1.2,2.2-1.8c-0.2-0.6-0.2-0.9-0.3-1.1l-1.1-0.9l-1.1-1.4l1.1-0.9l-2.2-0.5l0.1-1l2.7-0.1c-0.2,0-0.5-1.7,0.3-2.5
				l0.1,0l2.2-0.2l0.2-0.9c-0.4-0.6-1.8-2.9-3.1-4.3l-0.2-0.2l0.1-0.2c0,0,0.3-0.9,0.2-2.7c0-0.2-0.5-2.2-0.5-3.5L47,16.7l0.1-0.3
				c0.1-0.2,0.3-0.8,0.2-1.3c-0.1-0.1-0.6-0.3-1.3-0.3l-1,1l0-0.9c0-0.2-0.3-0.9-1.2-1l-3.6,1.2l-0.6,0.7l0.3,0.1l-0.6,0.5
				c-0.3,0.3-1.2,1.2-0.9,1.8l0.2,0.3c0.4,0.8,1.1,2.6,1.6,3.5l-0.1,0.1l0,0.1c0,0.1,0.2,1.8-0.5,2.9l1.5,2l0.3,3.9
				c0,0.1,0,3.8,2.2,4.8c0.1,0,0.2,0.1,0.3,0.1c2.5,0.7,2.6,1.6,2.4,2.4c0,0,0,0.1,0,0.1l0,0.1l-1.4,2.4l-0.3-0.1
				c-0.1,0-3.4-1.1-5.2-2.9c-0.4-0.3-3.8-2.9-4.8-5.8c-0.8-0.4-4.2-2.1-5.2-6.6l-0.4,0v0c0,0,0.5-3.4,4.2-3.6l0.4,0l0.2,0.1
				c0.6,0.4,1.5,1.7,0.9,3.6L34.7,26l-0.3,0c-0.3,0.1-0.8,0.6-0.7,2.4c0.1,0.2,0.3,0.5,0.6,0.7c-0.1-0.2-0.1-0.3-0.2-0.5
				c-0.1-0.5,0.1-1,0.5-1.5l0.7,0.5c-0.2,0.3-0.4,0.6-0.3,0.9c0.1,0.4,0.4,0.7,0.4,0.7l0.5,0.4l-0.5,0.3c-0.3,0.2-0.7,0.3-1.1,0.2
				c-0.8-0.2-1.6-1.1-1.7-1.3l-0.4-0.1l0-0.1c-0.1-2.4,1.1-3.1,1.5-3.3c0.4-1.3-0.1-2.1-0.4-2.4c-2.6,0.3-2.8,2.4-2.8,2.8
				c1,4.6,4.3,6,4.5,6.1l0.2,0.1l0.1,0.2c0.9,2.8,4.6,5.5,4.6,5.6l0.1,0c1.3,1.4,4,2.3,4.8,2.6l1.3-1.6c0,0,0-0.1,0-0.1
				c0.1-0.3-0.1-0.9-2.1-1.5c-0.1,0-0.4-0.1-0.6-0.2c-2.7-1.2-2.8-5.4-2.8-5.6l-0.3-3.7l-1.6-2.3l0.2-0.2c0.5-0.7,0.6-2,0.6-2.6
				c-0.5-0.9-1.3-2.6-1.7-3.4l-0.2-0.3c-0.4-0.8-0.2-1.7,0.3-2.3L36.2,16l0.1-0.8l1.7,0.1l0.8,0l0.6-0.7l3.9-1.4l0.1,0
				c0.9,0,1.4,0.2,1.7,0.8l0.3-0.5l0.1,0c0.5,0,2.3,0.3,2.5,1.3c0.1,0.6,0,1.3-0.1,1.7l2.1,2.1l0,0.2c0,1.2,0.5,3.5,0.5,3.5l0,0
				c0.1,1.5,0,2.5-0.1,2.9c1.4,1.7,3,4.3,3.1,4.4l0.1,0.1l-0.3,1.9l-2.5,0.3c-0.4,0.6,0,2,0.3,2.4l0.4,0.9l-1,0l0.5,1.7l-1.2,0
				l-0.3-0.3l0.2,0.5l0.9,0.8l0,0.1c0,0.1,0.4,0.3,0.7,1.2c0.4,1.6-2.2,2.7-2.5,2.8l0,0c-0.6,0.1-2.3,0-3.1,0l-1,3.4l0.4,1.2
				l-1.5,0.6l-1,0l-0.6,2.1c0.2,0.1,0.8,0.1,1.3,0.1l0.4-0.9l0.2,0c1.5-0.3,3-0.5,3.1-0.5l0.7-0.1l-0.4,1.2c6,4,12.3,13.5,12.6,13.9
				l0,0.1l0,1.1l-0.1,0.1C59.6,64.3,52.3,72.1,39.5,72.4z"/>
		</g>
		<g>
			<path fill="#603813" d="M26.5,44c0.3,0.1,0.6,0.2,0.9,0.3c0.3,0.1,0.6,0.2,0.9,0.4c0.6,0.3,1.1,0.6,1.7,0.9
				c0.3,0.2,0.5,0.3,0.8,0.5c0.3,0.2,0.5,0.4,0.8,0.5l0.8,0.6l0.7,0.6l0.7,0.6c0.2,0.2,0.5,0.4,0.7,0.6c0.2,0.2,0.5,0.4,0.7,0.7
				c0.2,0.2,0.4,0.5,0.7,0.7c0.2,0.2,0.4,0.5,0.6,0.7c0.2,0.2,0.4,0.5,0.6,0.8c0.2,0.3,0.3,0.5,0.5,0.9c0.1,0.2,0.1,0.3,0.2,0.5
				c0,0.1,0,0.2,0.1,0.3c0,0.1,0,0.1,0,0.2c0,0.1,0,0.1,0,0.2l0,0.1l-0.2,0c0,0-0.1,0-0.2,0.1c-0.1,0-0.1,0-0.2,0.1
				c-0.1,0.1-0.2,0.1-0.3,0.2c-0.1,0.1-0.1,0.2-0.2,0.3c0,0.1,0,0.1,0,0.2c0,0.1,0,0.1,0,0.2l0,0.7l-0.5-0.5
				c-0.7-0.8-1.5-1.5-2.3-2.1c-0.2-0.2-0.4-0.3-0.6-0.5c-0.2-0.1-0.4-0.3-0.7-0.4c-0.1-0.1-0.2-0.1-0.3-0.2C32.1,52,32,52,31.9,51.9
				l-0.4-0.1l-0.4-0.1l0.1-0.4c0.6,0.3,1.1,0.6,1.6,0.9c0.5,0.3,1,0.7,1.5,1c0.2,0.2,0.5,0.4,0.7,0.6c0.2,0.2,0.5,0.4,0.7,0.6
				c0.2,0.2,0.4,0.4,0.6,0.7c0.1,0.1,0.2,0.2,0.3,0.4l0,0.5l-0.3,0.1l0,0l2.9,5.6l0,0l0.1,0l0.8,8.9l-0.8-8.9l0.2-0.2l-2.6-5.9l0,0
				l-0.4-0.1c-0.1-0.1-0.3-0.1-0.4-0.2c-0.2-0.2-0.4-0.4-0.7-0.6c-0.2-0.2-0.5-0.4-0.7-0.6c-0.2-0.2-0.5-0.4-0.7-0.5
				c-0.5-0.4-1-0.7-1.5-1c-0.5-0.3-1.1-0.6-1.6-0.8l0.1-0.4l0.4,0.1l0.4,0.1c0.1,0,0.3,0.1,0.4,0.2c0.1,0.1,0.2,0.1,0.4,0.2
				c0.2,0.1,0.5,0.3,0.7,0.4c0.2,0.2,0.4,0.3,0.7,0.5c0.9,0.7,1.7,1.4,2.4,2.1l-0.5,0.2c0-0.1,0-0.2,0-0.3c0-0.1,0-0.2,0-0.3
				c0-0.2,0.1-0.4,0.3-0.5c0.1-0.1,0.3-0.3,0.4-0.3c0.1,0,0.2-0.1,0.2-0.1c0.1,0,0.2-0.1,0.3-0.1l-0.2,0.2c0,0,0,0,0,0
				c0,0,0-0.1,0-0.1c0-0.1,0-0.1,0-0.2c0-0.1-0.1-0.3-0.2-0.4c-0.1-0.3-0.3-0.5-0.5-0.8c-0.2-0.2-0.4-0.5-0.6-0.7
				c-0.2-0.2-0.4-0.5-0.6-0.7c-0.2-0.2-0.4-0.4-0.6-0.7c-0.2-0.2-0.4-0.4-0.7-0.6c-0.2-0.2-0.5-0.4-0.7-0.6l-0.7-0.6l-0.7-0.6
				l-0.7-0.5c-0.3-0.2-0.5-0.4-0.8-0.5c-0.3-0.2-0.5-0.3-0.8-0.5c-0.5-0.3-1.1-0.6-1.6-0.8c-0.3-0.1-0.6-0.2-0.8-0.3
				c-0.3-0.1-0.6-0.2-0.8-0.3L26.5,44z"/>
		</g>
		<g>
			<path fill="#603813" d="M39.8,61.5c0,0,1.5,2,3,4c0.7,1,1.4,2.1,1.9,2.9c0.5,0.8,0.8,1.4,0.8,1.4s-0.3-0.5-0.8-1.3
				c-0.5-0.8-1.3-1.8-2-2.8c-1.5-2-3.1-3.9-3.1-3.9L39.8,61.5z"/>
		</g>
		<g>
			<path fill="#603813" d="M30.6,54.9c0,0,0.8,0.2,1.8,0.8c0.3,0.2,0.5,0.3,0.8,0.5c0.3,0.2,0.6,0.4,0.9,0.7
				c0.3,0.2,0.6,0.5,0.8,0.8c0.3,0.3,0.5,0.6,0.8,0.9c0.2,0.3,0.5,0.7,0.7,1c0.1,0.2,0.2,0.3,0.3,0.5c0.1,0.2,0.2,0.4,0.2,0.5
				c0.1,0.2,0.2,0.3,0.2,0.5c0,0.2,0.1,0.3,0.1,0.5c0,0.2,0.1,0.3,0.1,0.5c0,0.2,0,0.3,0.1,0.5c0,0.3,0.1,0.6,0.1,0.8
				c0,0.2,0,0.5,0,0.6c0,0.3,0,0.5,0,0.5s-0.1-0.2-0.1-0.5c0-0.2-0.1-0.4-0.1-0.6c-0.1-0.2-0.2-0.5-0.2-0.8c0-0.1-0.1-0.3-0.2-0.4
				c-0.1-0.1-0.1-0.3-0.2-0.4c-0.1-0.2-0.1-0.3-0.2-0.5c-0.1-0.2-0.1-0.3-0.2-0.5c-0.1-0.2-0.2-0.3-0.2-0.5
				c-0.1-0.2-0.2-0.3-0.3-0.5c-0.2-0.3-0.4-0.6-0.6-0.9c-0.2-0.3-0.5-0.6-0.7-0.9c-0.3-0.3-0.5-0.6-0.7-0.8
				c-0.3-0.2-0.5-0.5-0.7-0.7c-0.2-0.2-0.5-0.4-0.7-0.6c-0.4-0.4-0.8-0.7-1.1-0.9C30.7,55,30.6,54.9,30.6,54.9z"/>
		</g>
		<g>
			<path fill="#603813" d="M33.4,40.8c0,0,0.1,0,0.4,0.1c0.2,0.1,0.6,0.2,0.9,0.4c0.4,0.2,0.8,0.4,1.3,0.7c0.5,0.3,0.9,0.6,1.4,1
				c0.2,0.2,0.4,0.4,0.7,0.5c0.2,0.2,0.4,0.4,0.6,0.5c0.2,0.2,0.4,0.4,0.6,0.5c0.2,0.2,0.3,0.3,0.5,0.5c0.3,0.3,0.5,0.6,0.7,0.8
				c0.2,0.2,0.2,0.3,0.2,0.3s-0.1-0.1-0.3-0.3c-0.2-0.2-0.5-0.4-0.8-0.7c-0.6-0.6-1.5-1.3-2.4-2c-0.2-0.2-0.4-0.3-0.7-0.5
				c-0.2-0.2-0.4-0.3-0.7-0.5c-0.4-0.3-0.8-0.6-1.2-0.8C33.9,41.1,33.4,40.8,33.4,40.8z"/>
		</g>
		<g>
			<path fill="#603813" d="M18.4,57C18.4,57,18.4,57,18.4,57c0-0.1,0.1-0.1,0.1-0.2c0.1-0.1,0.2-0.3,0.3-0.4c0.3-0.3,0.7-0.7,1.2-1
				c0.2-0.1,0.5-0.3,0.7-0.4c0.2-0.1,0.4-0.2,0.6-0.3c0.4-0.1,0.6-0.2,0.6-0.2s-0.2,0.1-0.6,0.3c-0.2,0.1-0.4,0.2-0.5,0.4
				c-0.2,0.1-0.4,0.3-0.6,0.5c-0.4,0.3-0.7,0.8-0.8,1.1c-0.1,0.2-0.1,0.3-0.2,0.4c0,0,0,0.1,0,0.1c0,0,0,0,0,0L18.4,57z"/>
		</g>
		<g>
			<path fill="#603813" d="M43.9,50.6c0.5,0.5,0.9,1,1.4,1.5c0.5,0.5,0.1,1.3,0.6,1.9l-0.8,0.3l0,0c0.4,1,1.6,1.6,2.1,2.6
				c0.5,0.9,1.3,1.7,1.9,2.6c0.3,0.4,0.7,0.8,1,1.3c0.3,0.5,0.6,0.9,0.8,1.4c0.5,1,0.9,1.9,1.1,3L51.9,65c0.2-0.1,0.3-0.1,0.5-0.1
				c0.2,0,0.3,0,0.5,0c0.2,0,0.3,0.1,0.4,0.1c0.1,0,0.1,0.1,0.2,0.1c0.1,0,0.1,0.1,0.2,0.1c0.1,0.1,0.3,0.2,0.4,0.3
				c0.1,0.1,0.2,0.2,0.3,0.3c0.1,0.1,0.2,0.2,0.3,0.3l0.3,0.4l-0.3-0.3L54.5,66c-0.1,0-0.1-0.1-0.2-0.1c-0.1-0.1-0.2-0.2-0.4-0.3
				c-0.1-0.1-0.2-0.1-0.4-0.2c-0.1,0-0.1-0.1-0.2-0.1c-0.1,0-0.1,0-0.2-0.1c-0.1,0-0.3-0.1-0.4-0.1c-0.1,0-0.3-0.1-0.5-0.1
				c-0.1,0-1-0.3-1.1-0.2l-0.8-0.1l0,0c0.2-0.9,0-1.7-0.5-2.6c-0.2-0.5-0.1-0.8-0.4-1.3c-0.3-0.5-0.4-0.8-0.6-1.3
				c-0.3-0.4-0.5-0.9-0.7-1.3c-0.2-0.5-0.4-0.9-0.7-1.4c-0.5-1-0.8-1.9-1.2-2.9l0,0c-0.4-0.5-0.8-1.1-1.3-1.6
				C44.8,51.7,44.3,51.1,43.9,50.6z"/>
		</g>
		<g>
			<path fill="#603813" d="M52.9,56.1c0,0,0.1,0.1,0.3,0.3c0.2,0.2,0.4,0.5,0.6,0.9c0.5,0.7,1.2,1.7,1.8,2.7c0.6,1,1.2,2,1.7,2.8
				c0.2,0.4,0.4,0.7,0.5,0.9c0.1,0.2,0.2,0.4,0.2,0.4s-0.1-0.1-0.3-0.3c-0.2-0.2-0.4-0.5-0.6-0.9c-0.5-0.7-1.2-1.7-1.8-2.7
				c-0.6-1-1.2-2-1.7-2.8c-0.2-0.4-0.4-0.7-0.5-0.9C52.9,56.3,52.9,56.1,52.9,56.1z"/>
		</g>
		<g>
			<path fill="#603813" d="M40.1,37.8c0,0,0.4,1.4,0.9,2.8c0.2,0.7,0.5,1.4,0.7,1.9c0.2,0.5,0.3,0.9,0.3,0.9s-0.2-0.3-0.4-0.8
				c-0.3-0.5-0.6-1.2-0.9-1.8c-0.7-1.3-1.3-2.7-1.3-2.7L40.1,37.8z"/>
		</g>
		<g>
			<path fill="#603813" d="M44.8,25.3c0.4-0.4,0.7-0.7,1.1-1l1-1.1l0-0.2l0.1,0c0.1,0,0.2,0.1,0.3,0.1c0.1,0,0.2,0,0.2,0
				c0.1,0,0.3,0,0.4,0.1c0.2,0,0.5,0.1,0.6,0.3c0.2,0.1,0.3,0.3,0.5,0.4c0.1,0.2,0.2,0.3,0.3,0.5c-0.2-0.1-0.4-0.2-0.5-0.2
				c-0.1,0-0.2-0.1-0.2-0.1c-0.1,0-0.2-0.1-0.2-0.1c-0.1,0-0.2,0-0.2,0c-0.1,0-0.1,0-0.2,0c-0.1,0-0.3-0.4-0.3-0.4
				c0,0-0.2-0.4-0.2-0.4c0,0-0.1,0-0.1,0l0.3,0.3c-0.2,0.2-0.3,0.6-0.5,0.7c-0.2,0.2-0.4,0.4-0.6,0.6c-0.2,0.1-0.4,0.3-0.7,0.4
				C45.3,25.2,45.1,25.3,44.8,25.3z"/>
		</g>
		<g>
			<path fill="#603813" d="M47,25.2c0.1-0.2,0.2-0.3,0.4-0.4c0.2-0.1,0.4-0.1,0.6,0l0,0.7c0,0,0,0,0,0c0,0,0,0,0,0
				c0,0,0,0.1-0.1,0.1c0,0,0,0,0,0.1c0,0,0,0,0,0.1c0,0,0,0.1,0,0.1c0,0,0,0.1,0,0.1c0,0.1,0,0.2,0.1,0.4c-0.2,0-0.3,0-0.5-0.1
				c-0.1-0.1-0.3-0.2-0.3-0.5c0-0.1,0-0.2,0-0.3c0-0.1,0.1-0.2,0.1-0.3c0.1-0.1,0.1-0.2,0.2-0.2c0,0,0.1-0.1,0.1-0.1
				c0,0,0.1,0,0.1-0.1l0,0.7c0,0-0.1-0.1-0.2-0.2C47.3,25.3,47.2,25.3,47,25.2z"/>
		</g>
		<g>
			<path fill="#603813" d="M48.5,25.7c0,0,0.1,0,0.3,0.1c0.1,0,0.2,0.1,0.2,0.3c0,0.1,0.1,0.2,0,0.4c0,0.1,0,0.1,0,0.2
				c0,0.1,0,0.1-0.1,0.1c0,0.1-0.1,0.2-0.2,0.2c-0.1,0.1-0.2,0.2-0.2,0.2s0-0.1,0-0.3c0-0.1,0-0.3,0.1-0.5c0-0.1,0-0.1,0-0.2
				c0-0.1,0-0.1,0-0.2C48.6,25.8,48.5,25.7,48.5,25.7z"/>
		</g>
	</g>
</g>
</svg>
