<!-- Generator: Adobe Illustrator 18.1.1, SVG Export Plug-In  -->
<svg version="1.1"
	 xmlns="http://www.w3.org/2000/svg" xmlns:xlink="http://www.w3.org/1999/xlink" xmlns:a="http://ns.adobe.com/AdobeSVGViewerExtensions/3.0/"
	 x="0px" y="0px" width="196px" height="194.1px" viewBox="0 0 196 194.1" enable-background="new 0 0 196 194.1"
	 xml:space="preserve">
<defs>
</defs>
<g>
	<linearGradient id="SVGID_1_" gradientUnits="userSpaceOnUse" x1="50.6984" y1="53.1065" x2="98.4728" y2="53.1065">
		<stop  offset="0" style="stop-color:#E8FFE2"/>
		<stop  offset="0.2718" style="stop-color:#E7FFDF"/>
		<stop  offset="0.4489" style="stop-color:#E6FFD7"/>
		<stop  offset="0.599" style="stop-color:#E3FEC8"/>
		<stop  offset="0.734" style="stop-color:#DFFDB3"/>
		<stop  offset="0.8589" style="stop-color:#DAFC97"/>
		<stop  offset="0.9748" style="stop-color:#D4FB76"/>
		<stop  offset="1" style="stop-color:#D2FB6E"/>
	</linearGradient>
	<path fill="url(#SVGID_1_)" d="M98.5,97.4c0,0-54.3-31.4-47.1-88.5C51.3,8.8,89.9,8.8,98.5,97.4z"/>
	<linearGradient id="SVGID_2_" gradientUnits="userSpaceOnUse" x1="128.5825" y1="-0.1836" x2="97.1646" y2="96.2122">
		<stop  offset="0" style="stop-color:#E8FFE2"/>
		<stop  offset="0.2718" style="stop-color:#E7FFDF"/>
		<stop  offset="0.4489" style="stop-color:#E6FFD7"/>
		<stop  offset="0.599" style="stop-color:#E3FEC8"/>
		<stop  offset="0.734" style="stop-color:#DFFDB3"/>
		<stop  offset="0.8589" style="stop-color:#DAFC97"/>
		<stop  offset="0.9748" style="stop-color:#D4FB76"/>
		<stop  offset="1" style="stop-color:#D2FB6E"/>
	</linearGradient>
	<path fill="url(#SVGID_2_)" d="M97.8,95.7c0,0-15.7-60.7,30.1-95.7C127.8,0,154.9,27.5,97.8,95.7z"/>
	<linearGradient id="SVGID_3_" gradientUnits="userSpaceOnUse" x1="186.2171" y1="44.3833" x2="98.3897" y2="94.3664">
		<stop  offset="0" style="stop-color:#E8FFE2"/>
		<stop  offset="0.2718" style="stop-color:#E7FFDF"/>
		<stop  offset="0.4489" style="stop-color:#E6FFD7"/>
		<stop  offset="0.599" style="stop-color:#E3FEC8"/>
		<stop  offset="0.734" style="stop-color:#DFFDB3"/>
		<stop  offset="0.8589" style="stop-color:#DAFC97"/>
		<stop  offset="0.9748" style="stop-color:#D4FB76"/>
		<stop  offset="1" style="stop-color:#D2FB6E"/>
	</linearGradient>
	<path fill="url(#SVGID_3_)" d="M97.8,95.7c0,0,28.8-55.7,86.3-51.2C184,44.5,185.8,83,97.8,95.7z"/>
	<linearGradient id="SVGID_4_" gradientUnits="userSpaceOnUse" x1="196.9676" y1="73.8002" x2="99.8577" y2="96.6496">
		<stop  offset="0" style="stop-color:#E8FFE2"/>
		<stop  offset="0.2718" style="stop-color:#E7FFDF"/>
		<stop  offset="0.4489" style="stop-color:#E6FFD7"/>
		<stop  offset="0.599" style="stop-color:#E3FEC8"/>
		<stop  offset="0.734" style="stop-color:#DFFDB3"/>
		<stop  offset="0.8589" style="stop-color:#DAFC97"/>
		<stop  offset="0.9748" style="stop-color:#D4FB76"/>
		<stop  offset="1" style="stop-color:#D2FB6E"/>
	</linearGradient>
	<path fill="url(#SVGID_4_)" d="M97.8,95.7c0,0,45.1-43.5,98.1-20.9C195.9,74.8,185.3,111.8,97.8,95.7z"/>
	<linearGradient id="SVGID_5_" gradientUnits="userSpaceOnUse" x1="192.0934" y1="117.0615" x2="95.6975" y2="92.7841">
		<stop  offset="0" style="stop-color:#E8FFE2"/>
		<stop  offset="0.2718" style="stop-color:#E7FFDF"/>
		<stop  offset="0.4489" style="stop-color:#E6FFD7"/>
		<stop  offset="0.599" style="stop-color:#E3FEC8"/>
		<stop  offset="0.734" style="stop-color:#DFFDB3"/>
		<stop  offset="0.8589" style="stop-color:#DAFC97"/>
		<stop  offset="0.9748" style="stop-color:#D4FB76"/>
		<stop  offset="1" style="stop-color:#D2FB6E"/>
	</linearGradient>
	<path fill="url(#SVGID_5_)" d="M97.8,95.7c0,0,58.8-21.7,98.2,20.3C196,116,171.4,145.6,97.8,95.7z"/>
	<linearGradient id="SVGID_6_" gradientUnits="userSpaceOnUse" x1="174.8277" y1="142.4331" x2="98.425" y2="96.7343">
		<stop  offset="0" style="stop-color:#E8FFE2"/>
		<stop  offset="0.2718" style="stop-color:#E7FFDF"/>
		<stop  offset="0.4489" style="stop-color:#E6FFD7"/>
		<stop  offset="0.599" style="stop-color:#E3FEC8"/>
		<stop  offset="0.734" style="stop-color:#DFFDB3"/>
		<stop  offset="0.8589" style="stop-color:#DAFC97"/>
		<stop  offset="0.9748" style="stop-color:#D4FB76"/>
		<stop  offset="1" style="stop-color:#D2FB6E"/>
	</linearGradient>
	<path fill="url(#SVGID_6_)" d="M97.8,95.7c0,0,59-0.7,79.3,48.2C177,143.9,145.4,162.1,97.8,95.7z"/>
	<linearGradient id="SVGID_7_" gradientUnits="userSpaceOnUse" x1="149.6264" y1="180.3566" x2="98.9293" y2="98.2416">
		<stop  offset="0" style="stop-color:#E8FFE2"/>
		<stop  offset="0.2718" style="stop-color:#E7FFDF"/>
		<stop  offset="0.4489" style="stop-color:#E6FFD7"/>
		<stop  offset="0.599" style="stop-color:#E3FEC8"/>
		<stop  offset="0.734" style="stop-color:#DFFDB3"/>
		<stop  offset="0.8589" style="stop-color:#DAFC97"/>
		<stop  offset="0.9748" style="stop-color:#D4FB76"/>
		<stop  offset="1" style="stop-color:#D2FB6E"/>
	</linearGradient>
	<path fill="url(#SVGID_7_)" d="M97.8,95.7c0,0,56.1,28,52.4,85.5C150.2,181.2,111.7,183.5,97.8,95.7z"/>
	<linearGradient id="SVGID_8_" gradientUnits="userSpaceOnUse" x1="122.722" y1="185.2036" x2="97.7305" y2="94.5201">
		<stop  offset="0" style="stop-color:#E8FFE2"/>
		<stop  offset="0.2718" style="stop-color:#E7FFDF"/>
		<stop  offset="0.4489" style="stop-color:#E6FFD7"/>
		<stop  offset="0.599" style="stop-color:#E3FEC8"/>
		<stop  offset="0.734" style="stop-color:#DFFDB3"/>
		<stop  offset="0.8589" style="stop-color:#DAFC97"/>
		<stop  offset="0.9748" style="stop-color:#D4FB76"/>
		<stop  offset="1" style="stop-color:#D2FB6E"/>
	</linearGradient>
	<path fill="url(#SVGID_8_)" d="M97.8,95.7c0,0,45.7,41.4,26.3,92.5C124.1,188.2,86.7,179.4,97.8,95.7z"/>
	<linearGradient id="SVGID_9_" gradientUnits="userSpaceOnUse" x1="78.7758" y1="194.5336" x2="98.055" y2="90.9973">
		<stop  offset="0" style="stop-color:#E8FFE2"/>
		<stop  offset="0.2718" style="stop-color:#E7FFDF"/>
		<stop  offset="0.4489" style="stop-color:#E6FFD7"/>
		<stop  offset="0.599" style="stop-color:#E3FEC8"/>
		<stop  offset="0.734" style="stop-color:#DFFDB3"/>
		<stop  offset="0.8589" style="stop-color:#DAFC97"/>
		<stop  offset="0.9748" style="stop-color:#D4FB76"/>
		<stop  offset="1" style="stop-color:#D2FB6E"/>
	</linearGradient>
	<path fill="url(#SVGID_9_)" d="M97.8,95.7c0,0,22.5,58.5-19,98.5C78.8,194.1,48.8,169.9,97.8,95.7z"/>
	<linearGradient id="SVGID_10_" gradientUnits="userSpaceOnUse" x1="50.8402" y1="181.0244" x2="97.253" y2="95.3392">
		<stop  offset="0" style="stop-color:#E8FFE2"/>
		<stop  offset="0.2718" style="stop-color:#E7FFDF"/>
		<stop  offset="0.4489" style="stop-color:#E6FFD7"/>
		<stop  offset="0.599" style="stop-color:#E3FEC8"/>
		<stop  offset="0.734" style="stop-color:#DFFDB3"/>
		<stop  offset="0.8589" style="stop-color:#DAFC97"/>
		<stop  offset="0.9748" style="stop-color:#D4FB76"/>
		<stop  offset="1" style="stop-color:#D2FB6E"/>
	</linearGradient>
	<path fill="url(#SVGID_10_)" d="M97.8,95.7c0,0,3.3,61.1-47.1,85.4C50.7,181.1,30.1,149.5,97.8,95.7z"/>
	<linearGradient id="SVGID_11_" gradientUnits="userSpaceOnUse" x1="15.2191" y1="155.3538" x2="98.0481" y2="93.232">
		<stop  offset="0" style="stop-color:#E8FFE2"/>
		<stop  offset="0.2718" style="stop-color:#E7FFDF"/>
		<stop  offset="0.4489" style="stop-color:#E6FFD7"/>
		<stop  offset="0.599" style="stop-color:#E3FEC8"/>
		<stop  offset="0.734" style="stop-color:#DFFDB3"/>
		<stop  offset="0.8589" style="stop-color:#DAFC97"/>
		<stop  offset="0.9748" style="stop-color:#D4FB76"/>
		<stop  offset="1" style="stop-color:#D2FB6E"/>
	</linearGradient>
	<path fill="url(#SVGID_11_)" d="M97.8,95.7c0,0-24.3,57.8-81.9,57.9C15.9,153.6,11,115.4,97.8,95.7z"/>
	<linearGradient id="SVGID_12_" gradientUnits="userSpaceOnUse" x1="9.4655" y1="118.5999" x2="98.7209" y2="92.8944">
		<stop  offset="0" style="stop-color:#E8FFE2"/>
		<stop  offset="0.2718" style="stop-color:#E7FFDF"/>
		<stop  offset="0.4489" style="stop-color:#E6FFD7"/>
		<stop  offset="0.599" style="stop-color:#E3FEC8"/>
		<stop  offset="0.734" style="stop-color:#DFFDB3"/>
		<stop  offset="0.8589" style="stop-color:#DAFC97"/>
		<stop  offset="0.9748" style="stop-color:#D4FB76"/>
		<stop  offset="1" style="stop-color:#D2FB6E"/>
	</linearGradient>
	<path fill="url(#SVGID_12_)" d="M97.8,95.7c0,0-38.4,39-87.2,21.1C10.6,116.7,18.3,84.3,97.8,95.7z"/>
	<linearGradient id="SVGID_13_" gradientUnits="userSpaceOnUse" x1="0.4696" y1="73.1501" x2="99.0076" y2="95.9995">
		<stop  offset="0" style="stop-color:#E8FFE2"/>
		<stop  offset="0.2718" style="stop-color:#E7FFDF"/>
		<stop  offset="0.4489" style="stop-color:#E6FFD7"/>
		<stop  offset="0.599" style="stop-color:#E3FEC8"/>
		<stop  offset="0.734" style="stop-color:#DFFDB3"/>
		<stop  offset="0.8589" style="stop-color:#DAFC97"/>
		<stop  offset="0.9748" style="stop-color:#D4FB76"/>
		<stop  offset="1" style="stop-color:#D2FB6E"/>
	</linearGradient>
	<path fill="url(#SVGID_13_)" d="M97.8,95.7c0,0-59.2,20.5-97.8-22.3C0,73.4,25.2,44.2,97.8,95.7z"/>
	<linearGradient id="SVGID_14_" gradientUnits="userSpaceOnUse" x1="27.1316" y1="43.0209" x2="97.1078" y2="98.0022">
		<stop  offset="0" style="stop-color:#E8FFE2"/>
		<stop  offset="0.2718" style="stop-color:#E7FFDF"/>
		<stop  offset="0.4489" style="stop-color:#E6FFD7"/>
		<stop  offset="0.599" style="stop-color:#E3FEC8"/>
		<stop  offset="0.734" style="stop-color:#DFFDB3"/>
		<stop  offset="0.8589" style="stop-color:#DAFC97"/>
		<stop  offset="0.9748" style="stop-color:#D4FB76"/>
		<stop  offset="1" style="stop-color:#D2FB6E"/>
	</linearGradient>
	<path fill="url(#SVGID_14_)" d="M97.8,95.7c0,0-56.3-3.4-72.2-51.4C25.6,44.3,57.1,29.1,97.8,95.7z"/>
	<linearGradient id="SVGID_15_" gradientUnits="userSpaceOnUse" x1="151.4918" y1="21.8103" x2="98.6526" y2="94.6427">
		<stop  offset="0" style="stop-color:#E8FFE2"/>
		<stop  offset="0.2718" style="stop-color:#E7FFDF"/>
		<stop  offset="0.4489" style="stop-color:#E6FFD7"/>
		<stop  offset="0.599" style="stop-color:#E3FEC8"/>
		<stop  offset="0.734" style="stop-color:#DFFDB3"/>
		<stop  offset="0.8589" style="stop-color:#DAFC97"/>
		<stop  offset="0.9748" style="stop-color:#D4FB76"/>
		<stop  offset="1" style="stop-color:#D2FB6E"/>
	</linearGradient>
	<path fill="url(#SVGID_15_)" d="M97.8,95.7c0,0,4-55.8,54.3-75.1C152.1,20.6,167.8,50.6,97.8,95.7z"/>
	<linearGradient id="SVGID_16_" gradientUnits="userSpaceOnUse" x1="82.3653" y1="10.5032" x2="98.0742" y2="93.3322">
		<stop  offset="0" style="stop-color:#E8FFE2"/>
		<stop  offset="0.2718" style="stop-color:#E7FFDF"/>
		<stop  offset="0.4489" style="stop-color:#E6FFD7"/>
		<stop  offset="0.599" style="stop-color:#E3FEC8"/>
		<stop  offset="0.734" style="stop-color:#DFFDB3"/>
		<stop  offset="0.8589" style="stop-color:#DAFC97"/>
		<stop  offset="0.9748" style="stop-color:#D4FB76"/>
		<stop  offset="1" style="stop-color:#D2FB6E"/>
	</linearGradient>
	<path fill="url(#SVGID_16_)" d="M98.5,97.4c0,0-38.8-42.4-16.6-89.3C81.9,8.1,115.7,19.1,98.5,97.4z"/>
	<g>
		<path fill="#CCFF35" d="M103.2,59.1c0.1-1.6,0.2-1.6,0.3,0l1.2,28.3c0.1,1.6,0.6,1.7,1.3,0.2l10.8-26.2c0.6-1.5,0.7-1.5,0.2,0.1
			l-8.5,27c-0.5,1.6,0,1.9,1.1,0.6l19.1-20.9c1.1-1.2,1.2-1.1,0.2,0.2L111.7,91c-1,1.3-0.6,1.8,0.8,1l25.1-13.1
			c1.5-0.8,1.5-0.7,0.1,0.2l-23.9,15.2c-1.4,0.9-1.2,1.4,0.4,1.2l28.1-3.7c1.6-0.2,1.7-0.1,0,0.3l-27.7,6.1c-1.6,0.4-1.6,0.9,0,1.3
			l27.7,6.1c1.6,0.4,1.6,0.5,0,0.3l-28.1-3.7c-1.6-0.2-1.8,0.3-0.4,1.2l23.9,15.2c1.4,0.9,1.3,1-0.1,0.2l-25.1-13.1
			c-1.5-0.8-1.8-0.3-0.8,1l17.3,22.5c1,1.3,0.9,1.4-0.2,0.2l-19.1-20.9c-1.1-1.2-1.6-0.9-1.1,0.6l8.5,27c0.5,1.6,0.4,1.6-0.2,0.1
			L106,110.1c-0.6-1.5-1.2-1.4-1.3,0.2l-1.2,28.3c-0.1,1.6-0.2,1.6-0.3,0l-1.2-28.3c-0.1-1.6-0.6-1.7-1.3-0.2l-10.8,26.2
			c-0.6,1.5-0.7,1.5-0.2-0.1l8.5-27c0.5-1.6,0-1.9-1.1-0.6l-19.1,20.9c-1.1,1.2-1.2,1.1-0.2-0.2L95,106.8c1-1.3,0.6-1.8-0.8-1
			L69,118.9c-1.5,0.8-1.5,0.7-0.1-0.2l23.9-15.2c1.4-0.9,1.2-1.4-0.4-1.2l-28.1,3.7c-1.6,0.2-1.7,0.1,0-0.3l27.7-6.1
			c1.6-0.4,1.6-0.9,0-1.3l-27.7-6.1c-1.6-0.4-1.6-0.5,0-0.3l28.1,3.7c1.6,0.2,1.8-0.3,0.4-1.2L68.8,79.1c-1.4-0.9-1.3-1,0.1-0.2
			L94.1,92c1.5,0.8,1.8,0.3,0.8-1L77.7,68.5c-1-1.3-0.9-1.4,0.2-0.2L97,89.3c1.1,1.2,1.6,0.9,1.1-0.6l-8.5-27
			c-0.5-1.6-0.4-1.6,0.2-0.1l10.8,26.2c0.6,1.5,1.2,1.4,1.3-0.2L103.2,59.1z"/>
	</g>
	<path fill="#AEAD07" d="M82.5,111.9c3.5-3.7,8.2-6.3,13.1-7.4c-4.2,0-8.5,0.1-12.5-1.2c4.4-1.5,9.2-1.3,13.9-1
		c-3.9-0.5-7.6-2.4-10.3-5.3c3.7-0.3,7.1,1.8,10.1,3.7c-2.8-3-5.7-6.3-6.2-10.4c2.4,2.4,4.8,4.8,7.1,7.3c-0.8-4.5-1.6-9.1-2.3-13.6
		c0.6-0.6,1.7-0.4,2.3,0.2s0.8,1.5,1,2.3c0.5,1.8,0.9,3.5,1.4,5.3c0.2-4,2-7.9,4.7-10.9c1.2,4.5,0,9.3-1.1,13.8
		c1.1-1.1,1.3-2.7,1.7-4.1c0.9-2.9,3.2-5.5,6-6.7c0.8,2.2-0.5,4.6-2,6.4s-3.3,3.5-3.7,5.8c2.1-3.1,5.1-5.7,8.6-7.3
		c0.8,1.2-0.2,2.8-1.2,3.8c-2,2.1-4,4-6.1,5.9c3.9-1.4,8-2.6,12-3.5c-3.2,4.4-9,6-14.3,7.3c4.6,0.3,9.2,0.7,13.8,1
		c-0.9,1.7-3.2,2-5.1,2.1c-2.7,0-5.4-0.2-8.1-0.6c3.6,0.5,7.2,1.5,10.6,2.9c1,0.4,2,0.9,2.7,1.6c0.7,0.8,1.1,2,0.7,3
		c-2.2,0.7-4.3-1-6.1-2.4c-2-1.5-4.2-2.6-6.5-3.3c1.8,1.1,3.5,2.2,5.3,3.4c2,1.3,4.3,3.2,3.8,5.5c-1.2,0.7-2.8,0.6-4.1,0
		c-1.3-0.6-2.4-1.5-3.4-2.4c-2.6-2.3-5.2-4.6-7.8-6.9c0.4,4,0.6,8,0.5,11.9c0,1-0.6,2.5-1.6,2.2c0.2-4.2-0.3-8.3-1.3-12.4
		c-1.6,3.1-3,6.3-4.1,9.6c-0.5-3.8,1-7.5,2.4-11.1C93,110.5,87.6,112.5,82.5,111.9z"/>
	<g>
		<path fill="#FFFFFF" d="M106.3,93.3c0,0-3.6-9.5,5.7-14.5C112,78.8,119.9,87,106.3,93.3z"/>
		<path fill="#FFFFFF" d="M96.3,108.5c0,0,2.6,11.6-9,15.8C87.3,124.4,79.6,113.5,96.3,108.5z"/>
		<path fill="#FFFFFF" d="M105.6,106.2c0,0,11.3,3.7,9,15.9C114.5,122.1,101.2,123.2,105.6,106.2z"/>
		<path fill="#FFFFFF" d="M120,100.2c0,0,8.5-8.5,18.5-0.9C138.5,99.3,133.4,111.9,120,100.2z"/>
		<path fill="#FFFFFF" d="M86.9,92.6c0,0-12-1.1-12.5-13.6C74.4,79,87.3,74.8,86.9,92.6z"/>
		<path fill="#FFFFFF" d="M117,131.3c0,0-8.5,28.9,12.2,29.6C142,156.6,130.2,134.9,117,131.3z"/>
		<path fill="#FFFFFF" d="M76.3,117.4c0,0-26.6-5.3-25.6,13.3C55.6,141.9,74.2,129.6,76.3,117.4z"/>
		<path fill="#FFFFFF" d="M102.2,67.5c0,0,13-23.9-5.1-28.4C85,40.4,91.2,61.8,102.2,67.5z"/>
	</g>
</g>
</svg>
