<!-- Generator: Adobe Illustrator 18.1.1, SVG Export Plug-In  -->
<svg version="1.1"
	 xmlns="http://www.w3.org/2000/svg" xmlns:xlink="http://www.w3.org/1999/xlink" xmlns:a="http://ns.adobe.com/AdobeSVGViewerExtensions/3.0/"
	 x="0px" y="0px" width="196px" height="196px" viewBox="0 0 196 196" enable-background="new 0 0 196 196" xml:space="preserve">
<defs>
</defs>
<g>
	<path fill="#64B93E" d="M100,196c7.1-0.1,13.9-1.1,20.6-2.6c-3-28.4-12.1-70.7-12.1-70.7c4.2,16,27.3,41.4,43,57.4
		c27.4-17.9,45.2-49,44.5-84.1c-0.7-32.1-16.7-60.2-40.8-77.6c-9.7,10.2-25.9,28.1-31.9,39.3c-0.5,1.1-0.8,1.6-0.8,1.6
		c0.2-0.5,0.5-1.1,0.8-1.6c2.6-5.4,10.8-24.1,11.8-50.5c-12-4.9-25.2-7.5-39-7.2C53.4,0.9,17.8,28.8,5,67
		c10.9,4.5,33.3,13.4,46.8,15.7c2.1,0.3,3.4,0.4,3.4,0.4c-1-0.1-2.2-0.2-3.4-0.4c-9.1-1.2-34.8-4.3-50-3.8C0.5,85.8-0.1,92.8,0,100
		C1.2,154.2,45.9,197.1,100,196z"/>
	<circle fill="#489C3F" cx="162.6" cy="124.9" r="7.9"/>
	<circle fill="#489C3F" cx="169.7" cy="81.2" r="7.9"/>
	<circle fill="#489C3F" cx="148.3" cy="101.4" r="11.2"/>
</g>
</svg>
