<!-- Generator: Adobe Illustrator 18.1.1, SVG Export Plug-In  -->
<svg version="1.1"
	 xmlns="http://www.w3.org/2000/svg" xmlns:xlink="http://www.w3.org/1999/xlink" xmlns:a="http://ns.adobe.com/AdobeSVGViewerExtensions/3.0/"
	 x="0px" y="0px" width="194.7px" height="196px" viewBox="0 0 194.7 196" enable-background="new 0 0 194.7 196"
	 xml:space="preserve">
<defs>
</defs>
<g>
	<path fill="#489C3F" d="M188.5,135.6c2.7-6.5,4.6-13.2,5.9-19.9c-27.2-8.7-69.5-17.3-69.5-17.3c16.3,2.6,48.9-8.3,69.8-16.3
		C189.3,49.8,168,21,135.6,7.5c-29.6-12.3-61.8-9-87.4,6.2c5.5,13,15.3,35,23.2,45.1c0.8,0.9,1.1,1.4,1.1,1.4
		c-0.4-0.4-0.8-0.9-1.1-1.4c-3.9-4.6-17.7-19.5-41.5-31.1c-9.3,9-17,20-22.3,32.8c-16.3,39.3-5.1,83.1,24.7,110.2
		c8.5-8.1,25.7-25.1,33.2-36.5c1.1-1.8,1.8-2.9,1.8-2.9c-0.5,0.9-1.1,1.9-1.8,2.9c-4.8,7.9-17.9,30.1-23.6,44.2
		c5.7,4,11.9,7.4,18.5,10.2C110.4,209.2,167.7,185.5,188.5,135.6z"/>
	<circle fill="#64B93E" cx="148.6" cy="49.7" r="7.9"/>
	<circle fill="#64B93E" cx="111.4" cy="25.6" r="7.9"/>
	<circle fill="#64B93E" cx="121.4" cy="53.3" r="11.2"/>
</g>
</svg>
