<!-- Generator: Adobe Illustrator 18.1.1, SVG Export Plug-In  -->
<svg version="1.1"
	 xmlns="http://www.w3.org/2000/svg" xmlns:xlink="http://www.w3.org/1999/xlink" xmlns:a="http://ns.adobe.com/AdobeSVGViewerExtensions/3.0/"
	 x="0px" y="0px" width="57.9px" height="74.2px" viewBox="0 0 57.9 74.2" enable-background="new 0 0 57.9 74.2"
	 xml:space="preserve">
<defs>
</defs>
<path fill="#FF0000" stroke="#FFFFFF" stroke-width="1.5" stroke-linejoin="round" stroke-miterlimit="10" d="M56.8,36
	c1-3-0.4-4-2.4-4.7c-1.9-0.6-4,0.4-4.7,2.4l-6.4,14.7l-1.5,0.1l4.1-39c0.3-2-1.1-3.9-3.2-4.2c-2-0.3-3.9,1.1-4.2,3.2l-4.6,28.8
	l-1.5,0.1l-1.1-33c-0.1-2-1.8-3.6-3.8-3.6c-2,0.1-3.6,1.8-3.6,3.8l1.1,33l-1.5,0.1L17.1,9.1c-0.4-2-2.4-3.3-4.4-2.9
	c-2,0.4-3.3,2.4-2.9,4.4l6.5,29.5l-1.5,0.1L7.7,22.7c-0.8-1.9-2.9-2.8-4.8-2.1c-1.9,0.8-2.8,2.9-1.6,5.9l7.1,19.4l0.3,8.9
	c0.3,9.6,9.5,19,21.4,18.6C42,73,47,66,50.7,54.7L56.8,36z"/>
</svg>
