<!-- Generator: Adobe Illustrator 18.1.1, SVG Export Plug-In  -->
<svg version="1.1"
	 xmlns="http://www.w3.org/2000/svg" xmlns:xlink="http://www.w3.org/1999/xlink" xmlns:a="http://ns.adobe.com/AdobeSVGViewerExtensions/3.0/"
	 x="0px" y="0px" width="46.8px" height="51.6px" viewBox="0 0 46.8 51.6" enable-background="new 0 0 46.8 51.6"
	 xml:space="preserve">
<defs>
</defs>
<path fill="#FF0000" stroke="#FFFFFF" stroke-width="1.5" stroke-linejoin="round" stroke-miterlimit="10" d="M46,20
	c0.4-3.1-0.5-4-2.4-4.7c-2-0.6-4,0.5-4.7,2.4l-1.8,8l-1.5,0.1L35.2,7.3c0.3-2-1.2-3.9-3.2-4.2c-2-0.3-3.9,1.2-4.2,3.2l-0.1,8.4
	l-1.5,0.1L26,4.3c-0.1-2-1.8-3.6-3.9-3.5c-2,0.1-3.6,1.8-3.5,3.9l0.2,10.4l-1.5,0.1L16.3,4.5c-0.4-2-2.4-3.3-4.4-2.8
	C9.8,2.1,8.6,4.1,9,6.1l1,11.6l-1.5,0.1l-1.2-6.9c-0.8-1.9-2.5-3.1-4.8-2c-1.3,0.7-2.1,3.1-1.6,5.9l1.2,8.9l0.4,8.9
	c0.4,9.6,9.7,18.9,21.6,18.4c11.9-0.5,16.9-7.5,20.5-18.9L46,20z"/>
</svg>
