<!-- Generator: Adobe Illustrator 18.1.1, SVG Export Plug-In  -->
<svg version="1.1"
	 xmlns="http://www.w3.org/2000/svg" xmlns:xlink="http://www.w3.org/1999/xlink" xmlns:a="http://ns.adobe.com/AdobeSVGViewerExtensions/3.0/"
	 x="0px" y="0px" width="50px" height="162.7px" viewBox="0 0 50 162.7" enable-background="new 0 0 50 162.7" xml:space="preserve"
	>
<defs>
</defs>
<g>
	<g>
		
			<radialGradient id="SVGID_1_" cx="-1149.4153" cy="-4780.1406" r="73.4185" gradientTransform="matrix(0.8915 -0.453 0.453 0.8915 3215.0771 3814.1777)" gradientUnits="userSpaceOnUse">
			<stop  offset="0" style="stop-color:#C7B299"/>
			<stop  offset="0.5256" style="stop-color:#C5B098"/>
			<stop  offset="0.715" style="stop-color:#BEAA92"/>
			<stop  offset="0.8499" style="stop-color:#B39E89"/>
			<stop  offset="0.9583" style="stop-color:#A28E7C"/>
			<stop  offset="1" style="stop-color:#998675"/>
		</radialGradient>
		<path fill="url(#SVGID_1_)" d="M6.7,143.2c-1-5.2-5.3-29.2-5.4-52.2C1.1,52.7,20.1,7.5,22.8,1.3l3.5,0
			c2.8,6.2,22.2,51.2,22.4,89.6c0.1,23-4,47.1-4.9,52.2L6.7,143.2z"/>
		<path fill="#FF0000" d="M25.5,2.5c3.7,8.4,21.8,51.4,22,88.3c0.1,21.6-3.5,44.2-4.7,51l-17.5,0.1L7.7,142
			c-1.2-6.7-5.1-29.3-5.2-50.9C2.3,54.2,20,11,23.6,2.5l0.9,0L25.5,2.5 M27.1,0l-2.6,0L22,0c0,0-22.2,49.1-22,91
			c0.1,26.2,5.6,53.4,5.6,53.4l19.6-0.1l19.6-0.1c0,0,5.3-27.2,5.1-53.5C49.8,48.9,27.1,0,27.1,0L27.1,0z"/>
	</g>
	<path fill="#998675" d="M26.5,130.5l-2.7,0c-4.5,0-8.2-3.6-8.2-8.2l-0.1-12.2c0-4.5,3.6-8.2,8.2-8.2l2.7,0c4.5,0,8.2,3.6,8.2,8.2
		l0.1,12.2C34.7,126.8,31.1,130.5,26.5,130.5z"/>
	<path fill="#FFFFFF" d="M21.6,21.6c0,0,8.9,34.8,2.1,56c0,0,20.9,44.9,8.5,85.1C32.2,162.7,61.5,73.8,21.6,21.6z"/>
	<circle fill="#534741" cx="24.9" cy="79.4" r="4.9"/>
</g>
</svg>
